<svg xmlns="http://www.w3.org/2000/svg" xmlns:xlink="http://www.w3.org/1999/xlink" width="700" zoomAndPan="magnify" viewBox="0 0 525 749.999995" height="1000" preserveAspectRatio="xMidYMid meet" version="1.0"><path fill="#f0f0ff" d="M 522.246094 390.234375 C 483.28125 412.449219 451.476562 444.683594 414.585938 469.847656 C 397.410156 481.558594 379.019531 492.265625 358.851562 497.863281 C 349.53125 500.445312 339.871094 501.972656 330.183594 501.890625 C 325.082031 501.84375 320.117188 501.394531 315.019531 502.0625 C 310.167969 502.695312 305.449219 503.921875 300.875 505.652344 C 281.6875 512.875 265.875 526.738281 246.746094 534.027344 C 227.871094 541.207031 206.183594 538.363281 188.121094 529.980469 C 171.445312 522.238281 155.023438 507.421875 152.375 488.246094 C 150.335938 473.40625 159.664062 457.914062 169.261719 447.417969 C 174.191406 442.019531 179.855469 437.015625 186.414062 433.675781 C 190.890625 431.394531 196.644531 429.621094 201.503906 431.816406 C 208.703125 435.058594 210.605469 445.226562 210.839844 452.21875 C 211.238281 463.777344 207.167969 475.078125 202.964844 485.671875 C 198.617188 496.644531 193.546875 507.375 190.265625 518.730469 C 187.179688 529.402344 186.203125 540.742188 178.742188 549.546875 C 168.015625 562.21875 150.109375 566.6875 134.101562 564.589844 C 116.0625 562.226562 100.703125 551.277344 94.03125 534.140625 C 86.6875 515.269531 89.984375 493.484375 99.859375 476.167969 C 111.355469 455.988281 132.808594 442.457031 155.113281 437.183594 C 180.285156 431.238281 205.460938 437.429688 227.914062 449.289062 C 265.089844 468.921875 293.984375 499.347656 321.082031 530.800781 C 342.257812 555.386719 362.605469 580.738281 382.042969 606.734375 C 401.058594 632.15625 419.65625 658.289062 434.777344 686.265625 C 440.183594 696.273438 445.328125 706.652344 448.414062 717.644531 C 449.585938 721.824219 450.292969 725.082031 450.347656 729.105469 C 450.371094 731.265625 450.3125 732.042969 449.984375 733.457031 C 449.820312 734.132812 449.632812 734.789062 449.40625 735.449219 C 449.082031 736.375 449.609375 735.089844 449.308594 735.707031 C 449.128906 736.082031 448.925781 736.445312 448.722656 736.8125 C 447.78125 738.566406 445.816406 740.027344 443.765625 740.648438 C 440.078125 741.765625 436.902344 741.882812 432.503906 741.484375 C 423.0625 740.636719 417.089844 736.050781 411.070312 728.398438 C 402.472656 717.472656 396.441406 704.410156 390.957031 691.738281 C 383.765625 675.109375 377.746094 657.972656 371.960938 640.816406 C 359.0625 602.566406 347.816406 563.753906 334.328125 525.691406 C 327.46875 506.34375 319.449219 487.570312 311.308594 468.734375 C 300.078125 442.734375 289.050781 416.640625 278.984375 390.167969 C 269.085938 364.144531 260.117188 337.738281 252.898438 310.832031 C 247.632812 291.183594 243.703125 271.226562 239.117188 251.414062 C 231.261719 217.398438 222.933594 183.214844 219.453125 148.410156 C 217.917969 133.121094 217.113281 117.363281 219.472656 102.117188 C 221.25 90.648438 224.898438 78.570312 233.667969 70.453125 C 237.648438 66.765625 242.550781 64.273438 247.78125 62.875 C 253.609375 61.316406 260.703125 60.308594 266.25 63.25 C 271.964844 66.277344 275.125 72.417969 277.101562 78.316406 C 279.683594 86.050781 280.75 94.253906 281.359375 102.359375 C 282.03125 111.230469 282.113281 120.125 282.066406 129.011719 C 282.023438 137.566406 282.285156 146.242188 281.683594 154.777344 C 280.171875 176.117188 271.695312 197.828125 255.882812 212.628906 C 239.175781 228.265625 215.902344 232.707031 193.941406 227.84375 C 182.667969 225.339844 171.960938 220.75 162.183594 214.644531 C 153.914062 209.46875 146.898438 202.996094 139.773438 196.414062 C 126.835938 184.476562 113.789062 172.582031 102.027344 159.449219 C 96.675781 153.453125 91.5 147.183594 87.378906 140.253906 C 84.648438 135.648438 81.445312 129.71875 82.292969 124.144531 C 83.105469 118.808594 88.222656 116.460938 92.773438 114.804688 C 99.640625 112.296875 106.839844 111.085938 114.152344 111.238281 C 129.144531 111.539062 143.488281 117.316406 156.570312 124.234375 C 183.667969 138.574219 207.511719 159.96875 236.683594 170.226562 C 249 174.566406 262.628906 176.011719 275.09375 171.363281 C 282.007812 168.789062 287.824219 164.761719 293.449219 160.050781 C 298.886719 155.5 305.246094 152.046875 311.546875 148.832031 C 327.082031 140.894531 343.375 134.542969 358.851562 126.492188 C 371.449219 119.945312 386.230469 111.71875 392.964844 98.574219 C 399.140625 86.519531 395.703125 71.300781 389.347656 60.007812 C 382.09375 47.117188 370.097656 37.378906 357.511719 29.984375 C 327.324219 12.246094 290.808594 4.449219 256.167969 2.304688 C 222.414062 0.207031 187.820312 6.105469 155.832031 16.792969 C 135.644531 23.542969 93.636719 40.089844 106.5625 68.886719 C 114.234375 85.984375 133.695312 94.585938 148.175781 104.726562 C 166.335938 117.4375 183.269531 132.609375 203.519531 142.015625 C 213.003906 146.417969 223.085938 149.390625 233.570312 149.863281 C 242.222656 150.253906 250.796875 148.695312 259.175781 146.6875 C 275.976562 142.660156 292.398438 136.648438 308.058594 129.371094 C 322.246094 122.789062 337.09375 114.925781 348.023438 103.507812 C 355.496094 95.699219 360.964844 84.484375 353.96875 74.53125 C 349.542969 68.21875 340.398438 61.054688 332.324219 60.527344 C 325.945312 60.105469 321.953125 64.859375 319.921875 70.363281 C 316.980469 78.367188 316.996094 87.464844 316.792969 95.871094 C 316.492188 108.296875 317.046875 120.742188 317.566406 133.15625 C 318.816406 162.777344 320.320312 192.46875 317.445312 222.050781 C 316.128906 235.632812 313.585938 248.953125 309.789062 261.308594 C 307.894531 267.480469 306.441406 271.265625 303.425781 276.75 C 300.445312 282.175781 298.453125 284.988281 294.238281 289.089844 C 278.796875 304.101562 256.152344 308.195312 235.398438 305.820312 C 224.363281 304.554688 213.824219 300.890625 203.445312 297.097656 C 197.085938 294.773438 190.941406 292.410156 185.292969 288.511719 C 179.257812 284.351562 172.925781 278.179688 166.9375 272.964844 C 160.4375 267.320312 154.105469 261.527344 147.921875 255.542969 C 136.800781 244.785156 126.089844 233.570312 114.324219 223.488281 C 101.957031 212.898438 88.554688 203.839844 73.824219 196.871094 C 53.785156 187.382812 32.398438 180.917969 10.929688 175.589844 C 9.207031 175.15625 8.476562 177.8125 10.199219 178.238281 C 33.066406 183.921875 55.320312 191.867188 75.5625 204.042969 C 89.921875 212.675781 102.972656 223.035156 114.882812 234.789062 C 126.21875 245.972656 136.800781 257.90625 147.972656 269.246094 C 154.773438 276.140625 161.949219 282.671875 169.035156 289.285156 C 174.039062 293.953125 179.199219 298.550781 185.210938 301.90625 C 193.242188 306.382812 202.140625 309.625 210.726562 312.808594 C 221.527344 316.804688 233.246094 318.753906 244.75 318.941406 C 266.421875 319.28125 289.246094 312.433594 304.417969 296.292969 C 323.230469 276.28125 326.480469 247.710938 327.496094 221.6875 C 328.671875 191.515625 326.066406 161.210938 324.179688 131.097656 C 323.398438 118.695312 322.53125 106.21875 322.757812 93.773438 C 322.886719 86.421875 323.1875 76.683594 326.390625 70.59375 C 327.179688 69.089844 327.316406 68.78125 328.285156 67.886719 C 329 67.222656 329.1875 67.074219 330.183594 66.789062 C 330.535156 66.695312 332.257812 66.660156 332.648438 66.742188 C 334.28125 67.070312 335.402344 67.539062 336.621094 68.179688 C 344.25 72.195312 353.554688 79.464844 350.101562 89.105469 C 348.144531 94.582031 343.632812 99.039062 339.34375 102.777344 C 333.425781 107.933594 326.722656 112.167969 319.898438 116 C 304.09375 124.886719 287.070312 131.742188 269.722656 136.957031 C 262.269531 139.199219 254.695312 141.164062 247.007812 142.417969 C 236.453125 144.128906 225.839844 143.105469 215.707031 139.734375 C 194.417969 132.660156 176.792969 117.261719 159 104.183594 C 149.53125 97.210938 139.316406 91.371094 129.835938 84.453125 C 123.308594 79.691406 116.582031 73.90625 113.007812 66.507812 C 107.667969 55.460938 115.160156 45.785156 123.976562 39.46875 C 137.433594 29.808594 153.824219 24.300781 169.628906 19.890625 C 186.789062 15.089844 204.511719 11.566406 222.25 9.792969 C 256.664062 6.359375 293.089844 11.800781 325.585938 23.3125 C 351.882812 32.628906 386.722656 50.675781 388.707031 82.476562 C 389.617188 97.050781 378.402344 106.253906 367.019531 113.359375 C 351.976562 122.742188 335.378906 129.355469 319.351562 136.820312 C 311.941406 140.28125 304.523438 143.847656 297.558594 148.160156 C 291.515625 151.894531 286.5 156.980469 280.457031 160.683594 C 268.933594 167.734375 255.835938 168.378906 243.042969 164.714844 C 228.773438 160.628906 215.8125 152.691406 203.359375 144.828125 C 189.480469 136.074219 175.933594 126.730469 161.453125 118.972656 C 147.972656 111.761719 133.453125 105.796875 118.070312 104.613281 C 110.691406 104.042969 103.175781 104.726562 96.03125 106.675781 C 89.675781 108.414062 82.355469 110.867188 78.367188 116.472656 C 70.648438 127.324219 79.917969 141.863281 86.460938 150.765625 C 97.136719 165.296875 110.351562 177.90625 123.523438 190.15625 C 137.613281 203.265625 151.328125 217.082031 168.878906 225.546875 C 188.957031 235.234375 212.660156 239.386719 234.234375 232.191406 C 254.941406 225.269531 270.46875 208.683594 278.960938 188.902344 C 283.1875 179.058594 285.777344 168.636719 286.808594 157.980469 C 287.671875 149.09375 287.289062 140.035156 287.304688 131.117188 C 287.347656 113.898438 287.542969 95.75 282.550781 79.105469 C 280.667969 72.828125 277.804688 66.273438 272.875 61.773438 C 267.894531 57.238281 261.636719 55.828125 255.039062 56.304688 C 242.996094 57.183594 232.148438 62.285156 224.824219 72.046875 C 217.089844 82.378906 214.246094 95.636719 213.003906 108.234375 C 211.402344 124.398438 212.5625 140.792969 214.488281 156.875 C 216.644531 174.882812 219.925781 192.746094 223.625 210.492188 C 227.175781 227.566406 231.148438 244.546875 234.960938 261.554688 C 239.949219 283.804688 244.515625 306.058594 250.871094 327.984375 C 266.820312 383.023438 289.402344 435.8125 312.066406 488.34375 C 327.78125 524.792969 339.1875 562.929688 351.109375 600.730469 C 362.519531 636.902344 373.421875 673.902344 390.023438 708.109375 C 395.523438 719.449219 401.878906 731.300781 411.132812 740.054688 C 418.59375 747.113281 427.644531 749.859375 437.851562 749.519531 C 445.230469 749.265625 452.753906 746.578125 456.070312 739.496094 C 459.539062 732.078125 457.914062 723.160156 455.730469 715.621094 C 452.421875 704.167969 446.976562 693.285156 441.257812 682.871094 C 433.925781 669.515625 425.679688 656.667969 417.105469 644.085938 C 397.644531 615.484375 376.371094 588.101562 354.457031 561.351562 C 334.289062 536.75 313.992188 511.488281 291.15625 489.285156 C 256.085938 455.171875 207.589844 420.039062 155.847656 430.808594 C 133.328125 435.496094 111.21875 448.460938 98.128906 467.613281 C 86.839844 484.144531 81.664062 505.238281 85.371094 525.019531 C 88.808594 543.3125 100.410156 558.859375 117.710938 566.039062 C 133.371094 572.539062 151.945312 572.359375 167.3125 565.082031 C 174.585938 561.636719 180.964844 556.375 185.511719 549.722656 C 192.09375 540.070312 192.914062 528.316406 196.328125 517.449219 C 203.136719 495.792969 217.707031 474.160156 215.886719 450.636719 C 215.292969 443.035156 212.914062 433.839844 206.664062 428.804688 C 202.105469 425.132812 196.222656 424.582031 190.648438 425.765625 C 176.203125 428.851562 164.132812 441.160156 156.097656 452.871094 C 146.914062 466.257812 141.675781 482.359375 147.175781 498.214844 C 153.871094 517.496094 170.097656 531.453125 188.550781 539.175781 C 207.273438 547.015625 229.726562 549.152344 248.878906 541.726562 C 268.601562 534.078125 284.792969 519.351562 304.734375 512.289062 C 309.300781 510.675781 314.054688 509.472656 318.898438 509.148438 C 323.945312 508.8125 329.007812 509.421875 334.070312 509.21875 C 344.128906 508.824219 353.96875 506.847656 363.476562 503.601562 C 383.578125 496.726562 401.742188 485.167969 418.699219 472.5625 C 453.902344 446.382812 485.6875 414.972656 523.683594 392.699219 C 525.269531 391.773438 523.847656 389.328125 522.246094 390.238281 " fill-opacity="1" fill-rule="nonzero"/></svg>